<?xml version='1.0' encoding='iso-8859-1'?>
<!DOCTYPE svg PUBLIC '-//W3C//DTD SVG 1.1//EN' 'http://www.w3.org/Graphics/SVG/1.1/DTD/svg11.dtd'>
<svg version="1.1" xmlns="http://www.w3.org/2000/svg" viewBox="0 0 297 297" xmlns:xlink="http://www.w3.org/1999/xlink" enable-background="new 0 0 297 297">
  <g>
    <path d="m293.697,128.584l-138.368-124.672c-3.797-3.421-9.565-3.424-13.366-0.007l-138.652,124.671c-3.076,2.767-4.13,7.143-2.647,11.005 1.48,3.863 5.189,6.414 9.327,6.414h31.38v139.671c0,5.518 4.473,9.99 9.989,9.99h194.281c5.517,0 9.989-4.473 9.989-9.99v-139.671h31.38c4.136,0 7.843-2.549 9.325-6.409 1.484-3.861 0.435-8.235-2.638-11.002zm-58.046,147.093h-174.301v-135.195l87.152-77.675 87.148,77.675v135.195zm13.795-149.662l-94.297-84.047c-3.787-3.377-9.506-3.376-13.293-0.001l-94.301,84.048h-11.512l112.594-101.241 112.363,101.241h-11.554z"/>
    <path d="m118.777,116.725v24.476h-9.743c-5.518,0-9.99,4.473-9.99,9.989v98.898c0,5.517 4.473,9.989 9.99,9.989h78.932c5.518,0 9.99-4.473 9.99-9.989v-98.898c0-5.517-4.473-9.989-9.99-9.989h-9.743v-24.476c0-5.517-4.474-9.989-9.99-9.989h-39.465c-5.517,1.42109e-14-9.991,4.473-9.991,9.989zm.247,74.424h58.953v18.98h-58.953v-18.98zm58.953-13.985h-58.953v-15.984h58.953v15.984zm-58.953,62.935v-15.984h58.953v15.984h-58.953zm19.733-113.383h19.486v12.986h-19.486v-12.986z"/>
  </g>
</svg>
