<?xml version="1.0" encoding="utf-8"?>
<!-- Svg Vector Icons : http://www.onlinewebfonts.com/icon -->
<!DOCTYPE svg PUBLIC "-//W3C//DTD SVG 1.1//EN" "http://www.w3.org/Graphics/SVG/1.1/DTD/svg11.dtd">
<svg version="1.1" xmlns="http://www.w3.org/2000/svg" xmlns:xlink="http://www.w3.org/1999/xlink" x="0px" y="0px" viewBox="0 0 256 256" enable-background="new 0 0 256 256" xml:space="preserve">
<metadata> Svg Vector Icons : http://www.onlinewebfonts.com/icon </metadata>
<g><g><g><path fill="#000000" d="M68.8,22.6v9.8h4.9h4.9v-9.8v-9.8h-4.9h-4.9V22.6z"/><path fill="#000000" d="M28.8,31.7l-3.5,3.5l6.6,6.6c3.6,3.6,6.9,6.6,7.2,6.6c0.8,0,6.4-5.6,6.4-6.5c0-0.3-2.9-3.6-6.6-7.2l-6.6-6.6L28.8,31.7z"/><path fill="#000000" d="M108.1,35.1l-6.9,6.9l3.2,3.2c1.8,1.7,3.5,3.2,3.8,3.2c0.4,0,3.6-2.9,7.2-6.6l6.6-6.6l-3.6-3.6l-3.5-3.5L108.1,35.1z"/><path fill="#000000" d="M70,42.8c-18.9,3-32.8,20.1-31.7,38.9c0.7,11.1,6.4,21.4,15.2,27.9c3.1,2.2,3.2,2.1,3.9-4.4l0.4-4.1l-2.5-2.6c-1.4-1.4-3.6-4.7-4.8-7.2c-2.2-4.6-2.3-4.8-2.3-11.8c0-6.7,0.1-7.3,2-11.2c2.3-4.9,7.5-10.6,11.7-12.9c8.3-4.5,18.9-4.5,27.2,0c4.2,2.3,9.4,8,11.7,12.9c1.8,4,2,4.5,2,11.3V87h4.7h4.7l0.4-2.3c2.8-16.9-9.1-35.3-26-40.4C81.7,42.7,74.6,42.1,70,42.8z"/><path fill="#000000" d="M10,76.5v4.9h9.8h9.8v-4.9v-4.9h-9.8H10V76.5z"/><path fill="#000000" d="M117.8,76.5v4.9h9.8h9.8v-4.9v-4.9h-9.8h-9.8V76.5z"/><path fill="#000000" d="M64.3,93.5c-0.2,1.3-3.7,28.9-7.7,61.5c-4,32.5-7.5,60.2-7.7,61.4l-0.4,2.3h39.9h39.9v7.4v7.4h-13.2h-13.2v4.9v4.9h46h46v-4.9v-4.9h-13.2h-13.2V226v-7.4h39.3H246l-0.4-2.3c-0.2-1.2-3.7-28.9-7.7-61.4c-4-32.5-7.5-60.2-7.7-61.5l-0.4-2.3h-82.6H64.7L64.3,93.5z M117.8,102.4c0,1.7-1.7,19.2-2.2,23l-0.3,2.6H92.6H70v-1.4c0-0.7,0.7-6.7,1.5-13.3s1.5-12,1.5-12.1c0-0.1,10-0.1,22.4-0.1h22.4L117.8,102.4L117.8,102.4z M171.7,102.1c0,0.6,0.6,6.6,1.2,13.4c0.7,6.7,1.2,12.3,1.2,12.4c0,0.1-11,0.2-24.6,0.2h-24.6l0.4-2.9c0.4-3.2,2.2-22.1,2.2-23.3c0-0.6,4.8-0.7,22.1-0.7C170.3,101,171.7,101.1,171.7,102.1z M221.4,101.2c0,0.1,0.7,5.6,1.5,12.1s1.5,12.6,1.5,13.3v1.4h-20.2h-20.2l-0.3-2c-0.4-2.5-2.2-21.9-2.2-23.6c0-1.3,0.2-1.3,19.9-1.3C212.4,101,221.4,101.1,221.4,101.2z M114.2,139.8c0,2.5-2.4,29.1-2.8,30.9l-0.2,1.4H87.8H64.5v-1.3c0-1.7,3.7-31.2,4-32.3c0.2-0.6,5.3-0.7,23-0.7h22.7V139.8z M176.5,152.2c0.7,7.7,1.5,15.4,1.7,17l0.3,2.9h-28.8h-28.8l0.3-2c0.2-1,0.9-8.5,1.7-16.4c0.7-7.9,1.3-14.8,1.5-15.2c0.2-0.6,5.6-0.7,25.5-0.6l25.3,0.2L176.5,152.2z M227.9,153.1c1,8.3,2,15.9,2,17l0.1,2h-20.8h-20.8l-0.2-1.4c-0.2-0.7-0.9-7.8-1.6-15.7c-0.7-7.9-1.4-15-1.6-15.8l-0.2-1.3l20.6,0.1l20.7,0.2L227.9,153.1z M110.2,183.6c-0.2,1-0.8,7-1.3,13.5l-1,11.8H83.6H59.5l0.3-1.7c0.2-0.9,0.9-7,1.7-13.5l1.4-11.8h23.8h23.8L110.2,183.6z M179.3,183.3c0.4,1.8,2.2,21.8,2.2,24v1.7h-31.9h-31.9v-1.6c0-2.2,1.8-22.4,2.2-24l0.2-1.3h29.4h29.4L179.3,183.3z M232.8,192.6c0.7,5.7,1.5,11.7,1.7,13.3l0.4,2.9h-21.7h-21.7l-1-11.5c-0.6-6.3-1.2-12.4-1.4-13.5l-0.3-2l21.3,0.1l21.4,0.2L232.8,192.6z M157.7,226v7.4h-9.8H138V226v-7.4h9.8h9.8V226z"/><path fill="#000000" d="M31.8,111.5l-6.7,6.7l3.6,3.5l3.5,3.6l6.7-6.7c3.7-3.7,6.7-7,6.7-7.4c0-0.8-5.6-6.4-6.5-6.4C38.7,104.7,35.4,107.8,31.8,111.5z"/></g></g></g>
</svg>